# xmcd
#
# Track frame offsets:
#	150
#	15914
#	32408
#	46121
#	65174
#	79753
#	97394
#	111381
#	127647
#	143604
#	160640
#	174199
#
# Disc length: 2529 seconds
#
# Revision: 1
# Processed by: cddbd v1.4PL0 Copyright (c) Steve Scherf et al.
# Submitted via: audiograbber 1.82.01
#
DISCID=8a09df0c
DTITLE=Mister Gato  - Cumbia sin Fronteras
DYEAR=2000
DGENRE=Bailanta
TTITLE0=la pollera cortita
TTITLE1=caramelos y chicles
TTITLE2=el borrachon
TTITLE3=se valiente
TTITLE4=estas bien buena
TTITLE5=ya no me mientas
TTITLE6=provocadora
TTITLE7=boquita pintada
TTITLE8=cuenta la verdad
TTITLE9=cuentale
TTITLE10=soy tu prisionero
TTITLE11=que tonto fui
EXTD=
EXTT0=
EXTT1=
EXTT2=
EXTT3=
EXTT4=
EXTT5=
EXTT6=
EXTT7=
EXTT8=
EXTT9=
EXTT10=
EXTT11=
PLAYORDER=
